<mxfile host="app.diagrams.net" modified="2021-02-27T13:57:01.834Z" agent="5.0 (Windows NT 10.0; Win64; x64) AppleWebKit/537.36 (KHTML, like Gecko) Chrome/88.0.4324.182 Safari/537.36" etag="cLpOHdwE9LjFpuUi8pf0" version="14.4.3" type="github">
  <diagram name="Page-1" id="c7558073-3199-34d8-9f00-42111426c3f3">
    <mxGraphModel dx="1221" dy="645" grid="1" gridSize="10" guides="1" tooltips="1" connect="1" arrows="1" fold="1" page="1" pageScale="1" pageWidth="826" pageHeight="1169" background="#ffffff" math="0" shadow="0">
      <root>
        <mxCell id="0" />
        <mxCell id="1" parent="0" />
        <mxCell id="wXoaDlnzzZitLM3zypYV-96" value="Просмотр данных,&lt;br&gt;Редактирование,&lt;br&gt;Удаление, Добавление" style="whiteSpace=wrap;html=1;aspect=fixed;" vertex="1" parent="1">
          <mxGeometry x="360" y="332" width="98" height="98" as="geometry" />
        </mxCell>
        <mxCell id="wXoaDlnzzZitLM3zypYV-97" value="База Данных&lt;br&gt;train" style="shape=cylinder3;whiteSpace=wrap;html=1;boundedLbl=1;backgroundOutline=1;size=15;" vertex="1" parent="1">
          <mxGeometry x="379" y="190" width="60" height="80" as="geometry" />
        </mxCell>
        <mxCell id="wXoaDlnzzZitLM3zypYV-98" value="" style="endArrow=classic;html=1;exitX=0.5;exitY=0;exitDx=0;exitDy=0;entryX=0.5;entryY=1;entryDx=0;entryDy=0;entryPerimeter=0;" edge="1" parent="1" source="wXoaDlnzzZitLM3zypYV-96" target="wXoaDlnzzZitLM3zypYV-97">
          <mxGeometry width="50" height="50" relative="1" as="geometry">
            <mxPoint x="310" y="340" as="sourcePoint" />
            <mxPoint x="360" y="290" as="targetPoint" />
          </mxGeometry>
        </mxCell>
        <mxCell id="wXoaDlnzzZitLM3zypYV-99" value="Расписание поездов" style="rounded=0;whiteSpace=wrap;html=1;" vertex="1" parent="1">
          <mxGeometry x="210" y="390" width="90" height="60" as="geometry" />
        </mxCell>
        <mxCell id="wXoaDlnzzZitLM3zypYV-100" value="" style="endArrow=classic;html=1;entryX=0;entryY=0.75;entryDx=0;entryDy=0;exitX=1;exitY=0.5;exitDx=0;exitDy=0;" edge="1" parent="1" source="wXoaDlnzzZitLM3zypYV-99" target="wXoaDlnzzZitLM3zypYV-96">
          <mxGeometry width="50" height="50" relative="1" as="geometry">
            <mxPoint x="270" y="460" as="sourcePoint" />
            <mxPoint x="320" y="410" as="targetPoint" />
          </mxGeometry>
        </mxCell>
        <mxCell id="wXoaDlnzzZitLM3zypYV-101" value="Выбор подходящего маршрута" style="rounded=0;whiteSpace=wrap;html=1;" vertex="1" parent="1">
          <mxGeometry x="357" y="470" width="101" height="50" as="geometry" />
        </mxCell>
        <mxCell id="wXoaDlnzzZitLM3zypYV-102" value="" style="endArrow=classic;html=1;entryX=0.5;entryY=1;entryDx=0;entryDy=0;" edge="1" parent="1" source="wXoaDlnzzZitLM3zypYV-101" target="wXoaDlnzzZitLM3zypYV-96">
          <mxGeometry width="50" height="50" relative="1" as="geometry">
            <mxPoint x="240" y="580" as="sourcePoint" />
            <mxPoint x="290" y="530" as="targetPoint" />
          </mxGeometry>
        </mxCell>
        <mxCell id="wXoaDlnzzZitLM3zypYV-103" value="Просмотр наличия билетов" style="rounded=0;whiteSpace=wrap;html=1;" vertex="1" parent="1">
          <mxGeometry x="520" y="390" width="100" height="60" as="geometry" />
        </mxCell>
        <mxCell id="wXoaDlnzzZitLM3zypYV-104" value="" style="endArrow=classic;html=1;entryX=1;entryY=0.75;entryDx=0;entryDy=0;exitX=0;exitY=0.5;exitDx=0;exitDy=0;" edge="1" parent="1" source="wXoaDlnzzZitLM3zypYV-103" target="wXoaDlnzzZitLM3zypYV-96">
          <mxGeometry width="50" height="50" relative="1" as="geometry">
            <mxPoint x="520" y="380" as="sourcePoint" />
            <mxPoint x="570" y="330" as="targetPoint" />
          </mxGeometry>
        </mxCell>
      </root>
    </mxGraphModel>
  </diagram>
</mxfile>
